<svg xmlns="http://www.w3.org/2000/svg" viewBox="-1 -1 26 26"><defs><mask id="a"><rect x="-2" y="-2" width="28" height="28" fill="white"/>
    <path d="M8.5 8 L10.5 10 L8.5 12 L9.5 12 L11.5 10 L9.5 8 Z M15.5 8 L13.5 10 L15.5 12 L14.5 12 L12.5 10 L14.5 8 Z" fill="black"/></mask></defs>
  <g fill="#8B47B8"><path d="M9 4 L15 4 A4 4 0 0 1 19 8 L19 12 A4 4 0 0 1 15 16 L9 16 A4 4 0 0 1 5 12 L5 8 A4 4 0 0 1 9 4 Z" mask="url(#a)"/><rect x="1" y="9" width="3" height="4" rx="0.9"/><rect x="20" y="9" width="3" height="4" rx="0.9"/><rect x="7.2" y="17" width="3.5" height="4" rx="1.2"/><rect x="13.3" y="17" width="3.5" height="4" rx="1.2"/></g></svg>