<svg xmlns="http://www.w3.org/2000/svg" viewBox="-3 -5 30 30">
  <!-- Flat "welcome" variant, projected from mascot-rig.svg — do not edit by hand. -->
  <defs>
    <radialGradient id="cvm-hi" cx="33%" cy="20%" r="80%">
      <stop offset="0%" stop-color="#5489CC" stop-opacity="0.85"/>
      <stop offset="55%" stop-color="#5489CC" stop-opacity="0"/>
    </radialGradient>
    <linearGradient id="cvm-lo" x1="0" y1="0" x2="0.22" y2="1">
      <stop offset="52%" stop-color="#004383" stop-opacity="0"/>
      <stop offset="100%" stop-color="#004383" stop-opacity="0.75"/>
    </linearGradient>
    <linearGradient id="cvm-limb" x1="0" y1="0" x2="0" y2="1">
      <stop offset="0%" stop-color="#3A6FA8"/>
      <stop offset="100%" stop-color="#004383"/>
    </linearGradient>
    <radialGradient id="cvm-spec" cx="30%" cy="16%" r="26%">
      <stop offset="0%" stop-color="#ffffff" stop-opacity="0.5"/>
      <stop offset="100%" stop-color="#ffffff" stop-opacity="0"/>
    </radialGradient>
  </defs>
  <g id="rig-root">
    <g id="rig-arm-left" data-pivot="2.5 9"><path d="M1.8 9 L3.2 9 A0.8 0.8 0 0 1 4 9.8 L4 12.2 A0.8 0.8 0 0 1 3.2 13 L1.8 13 A0.8 0.8 0 0 1 1 12.2 L1 9.8 A0.8 0.8 0 0 1 1.8 9 Z" fill="url(#cvm-limb)"/></g>
    <g id="rig-arm-right" data-pivot="21.5 9"><path d="M20.8 9 L22.2 9 A0.8 0.8 0 0 1 23 9.8 L23 12.2 A0.8 0.8 0 0 1 22.2 13 L20.8 13 A0.8 0.8 0 0 1 20 12.2 L20 9.8 A0.8 0.8 0 0 1 20.8 9 Z" fill="url(#cvm-limb)"/>
      <g id="slot-item">
      <!-- Signature component: the wallpaper cat's clipboard of notes -->
      <g transform="rotate(-20 21.5 12.8)">
        <rect x="20.9" y="10.4" width="2.9" height="4.0" rx="0.35" fill="#F6AE2D"/>
        <rect x="20.9" y="10.4" width="2.9" height="0.8" rx="0.3" fill="#C97F14"/>
        <rect x="21.7" y="9.98" width="1.3" height="0.72" rx="0.28" fill="#8A5A0B"/>
        <path d="M21.6 12.1 H23.1 M21.6 12.95 H23.1 M21.6 13.8 H22.4" stroke="#8A5A0B" stroke-width="0.2" stroke-linecap="round"/>
      </g>
      </g>
    </g>
    <g id="rig-leg-left" data-pivot="8.95 17"><rect x="7.2" y="17" width="3.5" height="4" rx="1.2" fill="url(#cvm-limb)"/></g>
    <g id="rig-leg-right" data-pivot="15.05 17"><rect x="13.3" y="17" width="3.5" height="4" rx="1.2" fill="url(#cvm-limb)"/></g>
    <g id="rig-body">
      <path d="M9 4 L15 4 A4 4 0 0 1 19 8 L19 12 A4 4 0 0 1 15 16 L9 16 A4 4 0 0 1 5 12 L5 8 A4 4 0 0 1 9 4 Z" fill="#3A6FA8"/>
      <path d="M9 4 L15 4 A4 4 0 0 1 19 8 L19 12 A4 4 0 0 1 15 16 L9 16 A4 4 0 0 1 5 12 L5 8 A4 4 0 0 1 9 4 Z" fill="url(#cvm-lo)"/>
      <path d="M9 4 L15 4 A4 4 0 0 1 19 8 L19 12 A4 4 0 0 1 15 16 L9 16 A4 4 0 0 1 5 12 L5 8 A4 4 0 0 1 9 4 Z" fill="url(#cvm-hi)"/>
      <ellipse cx="9.6" cy="6.4" rx="3.4" ry="1.9" fill="url(#cvm-spec)" transform="rotate(-14 9.6 6.4)"/>
      
      <g id="rig-face-welcome">
        <ellipse cx="12" cy="13.3" rx="3.9" ry="1.5" fill="#FFF3E4"/>
        <ellipse cx="12" cy="12.5" rx="0.62" ry="0.45" fill="#3A2028"/>
        <ellipse cx="9.3" cy="9.55" rx="1.6" ry="2.2" fill="#061E37"/><g class="pupil"><circle cx="10" cy="10.25" r="0.3" fill="#FFF6EA"/><circle cx="9.35" cy="10.85" r="0.2" fill="#FFE9D2" fill-opacity="0.8"/><circle cx="10.3" cy="10.85" r="0.14" fill="#E9D6BC" fill-opacity="0.65"/></g><ellipse cx="14.7" cy="9.25" rx="1.6" ry="2.2" fill="#061E37"/><g class="pupil"><circle cx="15.4" cy="9.95" r="0.3" fill="#FFF6EA"/><circle cx="14.75" cy="10.55" r="0.2" fill="#FFE9D2" fill-opacity="0.8"/><circle cx="15.7" cy="10.55" r="0.14" fill="#E9D6BC" fill-opacity="0.65"/></g><g transform="rotate(-2 12 13.3)"><path d="M10.8 13.3 Q10.8 13 12 13 Q13.2 13 13.2 13.3 A1.1 1 0 0 1 10.8 13.3 Z" fill="#061E37"/></g>
      </g>
      
      
      
      
      
      
      <g id="slot-eyewear"/>
    </g>
    <g id="slot-hat">
      <!-- Signature component: floppy dog ears, from wallpaper-b.jpg's dog -->
      <ellipse cx="6.6" cy="3.1" rx="1.5" ry="2.35" fill="#29588A" transform="rotate(-16 6.6 3.1)"/>
      <ellipse cx="6.8" cy="3.3" rx="0.7" ry="1.5" fill="#658CBD" opacity="0.6" transform="rotate(-16 6.8 3.3)"/>
      <ellipse cx="17.4" cy="3.1" rx="1.5" ry="2.35" fill="#29588A" transform="rotate(16 17.4 3.1)"/>
      <ellipse cx="17.2" cy="3.3" rx="0.7" ry="1.5" fill="#658CBD" opacity="0.6" transform="rotate(16 17.2 3.3)"/>
    </g>
    
    
  </g>
</svg>
