<svg xmlns="http://www.w3.org/2000/svg" viewBox="-3 -5 30 30">
  <!-- Generated by scripts/flatten-rig.mjs from mascot-rig.svg — do not edit by hand.
       Flat "idle" variant (rig face "idle"). Android and remote browsers render
       this; desktop renders the rig. Regenerate whenever the rig changes. -->
  <defs>
    <linearGradient id="ccC-lo" x1="0" y1="0" x2="0.22" y2="1">
      <stop offset="52%" stop-color="#D5BCE0" stop-opacity="0"/>
      <stop offset="100%" stop-color="#D5BCE0" stop-opacity="0.55"/>
    </linearGradient>
  </defs>
  <g id="rig-root">
    <g id="rig-arm-left" data-pivot="2.5 9"><path d="M1.8 9 L3.2 9 A0.8 0.8 0 0 1 4 9.8 L4 12.2 A0.8 0.8 0 0 1 3.2 13 L1.8 13 A0.8 0.8 0 0 1 1 12.2 L1 9.8 A0.8 0.8 0 0 1 1.8 9 Z" fill="#F7EFFB" stroke="#4A2E63" stroke-width="0.6"/></g>
    <g id="rig-arm-right" data-pivot="21.5 9"><path d="M20.8 9 L22.2 9 A0.8 0.8 0 0 1 23 9.8 L23 12.2 A0.8 0.8 0 0 1 22.2 13 L20.8 13 A0.8 0.8 0 0 1 20 12.2 L20 9.8 A0.8 0.8 0 0 1 20.8 9 Z" fill="#F7EFFB" stroke="#4A2E63" stroke-width="0.6"/>
      <g id="slot-item"><path d="M23.2 7.1 L23.9 8.5 L25.4 8.7 L24.3 9.8 L24.6 11.3 L23.2 10.6 L21.8 11.3 L22.1 9.8 L21 8.7 L22.5 8.5 Z" fill="#8B47B8"/><path d="M23.2 11.1 L23.2 13.6" stroke="#B597C6" stroke-width="0.35" stroke-linecap="round"/></g>
    </g>
    <g id="rig-leg-left" data-pivot="8.95 17"><rect x="7.2" y="17" width="3.5" height="4" rx="1.2" fill="#F7EFFB" stroke="#4A2E63" stroke-width="0.6"/></g>
    <g id="rig-leg-right" data-pivot="15.05 17"><rect x="13.3" y="17" width="3.5" height="4" rx="1.2" fill="#F7EFFB" stroke="#4A2E63" stroke-width="0.6"/></g>
    <g id="rig-body">
      <path d="M9 4 L15 4 A4 4 0 0 1 19 8 L19 12 A4 4 0 0 1 15 16 L9 16 A4 4 0 0 1 5 12 L5 8 A4 4 0 0 1 9 4 Z" fill="#F7EFFB" stroke="#4A2E63" stroke-width="0.6"/>
      <path d="M9 4 L15 4 A4 4 0 0 1 19 8 L19 12 A4 4 0 0 1 15 16 L9 16 A4 4 0 0 1 5 12 L5 8 A4 4 0 0 1 9 4 Z" fill="url(#ccC-lo)"/>
      <g id="rig-face-idle">
        <path d="M8 10.2 Q9.3 9.1 10.6 10.2" fill="none" stroke="#3A2350" stroke-width="0.85" stroke-linecap="round"/><path d="M13.4 9.9 Q14.7 8.8 16 9.9" fill="none" stroke="#3A2350" stroke-width="0.85" stroke-linecap="round"/><ellipse cx="12" cy="13.35" rx="0.5" ry="0.42" fill="#3A2350"/>
      </g>
      
      
      
      
      
      
      
      <g id="slot-eyewear"><g fill="none" stroke="#8B47B8" stroke-width="0.4"><circle cx="9.3" cy="9.6" r="2.5"/><circle cx="14.7" cy="9.3" r="2.5"/><path d="M11.8 9.5 L12.2 9.4"/></g></g>
    </g>
    <g id="slot-hat"/>
    
    
  </g>
</svg>
