<svg xmlns="http://www.w3.org/2000/svg" viewBox="0 0 100 100" width="512" height="512" style="display:block">
  <defs>
    <linearGradient id="t8fc" x1="0" y1="0" x2="0.3" y2="1"><stop offset="0" stop-color="#FFD23F"/><stop offset="1" stop-color="#FFC21A"/></linearGradient>
    <linearGradient id="t8f" x1="96" y1="96" x2="96" y2="96" gradientUnits="userSpaceOnUse"><stop offset="0" stop-color="#DCD5CA"/><stop offset=".55" stop-color="#F6F2EC"/><stop offset="1" stop-color="#FFFFFF"/></linearGradient>
    <filter id="t8fs" x="-50%" y="-50%" width="200%" height="200%"><feDropShadow dx="-1.2" dy="-1.2" stdDeviation="1.6" flood-color="#3B2A12" flood-opacity=".32"/></filter>
    <filter id="t8ts" x="-10%" y="-10%" width="120%" height="125%"><feDropShadow dx="0" dy="1.6" stdDeviation="1.8" flood-color="#2A1A3D" flood-opacity=".3"/></filter>
    <pattern id="t8bk" width="4" height="4" patternUnits="userSpaceOnUse" patternTransform="rotate(45)"><rect width="4" height="4" fill="none"/><rect width="0.6" height="4" fill="#C9B48F" opacity=".35"/></pattern>
  </defs>
  
  <g >
    <rect x="4" y="4" width="92" height="92" rx="22" fill="#fff" />
    <rect x="8" y="8" width="84" height="84" rx="18" fill="url(#t8fc)"/>
    
    <svg x="11" y="9" width="78" height="78" viewBox="-3.6 -3.6 31.2 31.2" overflow="visible">
  <defs>
    <filter id="m9s" x="-20%" y="-20%" width="140%" height="150%"><feDropShadow dx="0" dy="0.55" stdDeviation="0.55" flood-color="#2A1A3D" flood-opacity=".28"/></filter>
    <radialGradient id="m9g" cx="30%" cy="18%" r="55%"><stop offset="0" stop-color="#fff" stop-opacity=".42"/><stop offset="1" stop-color="#fff" stop-opacity="0"/></radialGradient>
    <clipPath id="m9c"><rect x="4.6" y="3.6" width="14.8" height="12.6" rx="4.4"/></clipPath>
  </defs>
  
  <g fill="#4C1D95" stroke="#4C1D95" stroke-width="1.8" stroke-linejoin="round"><rect x="4.6" y="3.6" width="14.8" height="12.6" rx="4.4"/><rect x="1" y="8.8" width="3.1" height="4.4" rx="1.25" transform="rotate(10 2.5 9)"/><rect x="20.05" y="2.2" width="3.1" height="4.7" rx="1.25" transform="rotate(26 21.6 4.55)"/><rect x="7.3" y="16.85" width="3.6" height="3.9" rx="1.3"/><rect x="13.1" y="16.85" width="3.6" height="3.9" rx="1.3"/></g>
  
  <g fill="#7C3AED"><rect x="4.6" y="3.6" width="14.8" height="12.6" rx="4.4"/><rect x="1" y="8.8" width="3.1" height="4.4" rx="1.25" transform="rotate(10 2.5 9)"/><rect x="20.05" y="2.2" width="3.1" height="4.7" rx="1.25" transform="rotate(26 21.6 4.55)"/><rect x="7.3" y="16.85" width="3.6" height="3.9" rx="1.3"/><rect x="13.1" y="16.85" width="3.6" height="3.9" rx="1.3"/></g>
  
  <ellipse cx="9.7" cy="9.35" rx="1.5" ry="2.02" fill="#1B1030"/><circle cx="10.2" cy="8.55" r="0.58" fill="#fff"/><circle cx="9.25" cy="10.35" r="0.26" fill="#fff"/><ellipse cx="14.3" cy="9.35" rx="1.5" ry="2.02" fill="#1B1030"/><circle cx="14.8" cy="8.55" r="0.58" fill="#fff"/><circle cx="13.850000000000001" cy="10.35" r="0.26" fill="#fff"/><path d="M10.9 12.55 Q12 13.75 13.1 12.55" fill="none" stroke="#1B1030" stroke-width="0.72" stroke-linecap="round"/>
<g transform="translate(76 76)"><circle r="21" fill="#7C3AED" stroke="#fff" stroke-width="5"/><path d="M0 -10 V8 M-8 1 L0 9 L8 1" fill="none" stroke="#fff" stroke-width="5" stroke-linecap="round" stroke-linejoin="round"/></g></svg>
  </g>
  
</svg>