<svg xmlns="http://www.w3.org/2000/svg" viewBox="-3 -5 30 30">
  <!-- Generated by build-mascot.mjs. Decorate the slots; do not reshape the body or move
       the limbs. Contract: wecoded-themes mascots/README.md -->
  <defs>
    <radialGradient id="dgC-hi" cx="33%" cy="20%" r="80%">
      <stop offset="0%" stop-color="#4A2840" stop-opacity="0.85"/>
      <stop offset="55%" stop-color="#4A2840" stop-opacity="0"/>
    </radialGradient>
    <linearGradient id="dgC-lo" x1="0" y1="0" x2="0.22" y2="1">
      <stop offset="52%" stop-color="#0E0610" stop-opacity="0"/>
      <stop offset="100%" stop-color="#0E0610" stop-opacity="0.75"/>
    </linearGradient>
    <linearGradient id="dgC-limb" x1="0" y1="0" x2="0" y2="1">
      <stop offset="0%" stop-color="#2E1828"/>
      <stop offset="100%" stop-color="#0E0610"/>
    </linearGradient>
    <radialGradient id="dgC-spec" cx="30%" cy="16%" r="26%">
      <stop offset="0%" stop-color="#ffffff" stop-opacity="0.5"/>
      <stop offset="100%" stop-color="#ffffff" stop-opacity="0"/>
    </radialGradient>
  </defs>
  <g id="rig-root">
    <g id="rig-tail" data-pivot="19 14"><path d="M19 14 Q21 14 21.5 15.5 Q22 17 20.5 17.2 L21 18.6 L19.5 18.2 Z" fill="url(#dgC-limb)"/></g>
    <g id="rig-arm-left" data-pivot="2.5 9"><path d="M1.8 9 L3.2 9 A0.8 0.8 0 0 1 4 9.8 L4 12.2 A0.8 0.8 0 0 1 3.2 13 L1.8 13 A0.8 0.8 0 0 1 1 12.2 L1 9.8 A0.8 0.8 0 0 1 1.8 9 Z" fill="url(#dgC-limb)"/></g>
    <g id="rig-arm-right" data-pivot="21.5 9"><path d="M20.8 9 L22.2 9 A0.8 0.8 0 0 1 23 9.8 L23 12.2 A0.8 0.8 0 0 1 22.2 13 L20.8 13 A0.8 0.8 0 0 1 20 12.2 L20 9.8 A0.8 0.8 0 0 1 20.8 9 Z" fill="url(#dgC-limb)"/>
      <g id="slot-item"/>
    </g>
    <g id="rig-leg-left" data-pivot="8.95 17"><rect x="7.2" y="17" width="3.5" height="4" rx="1.2" fill="url(#dgC-limb)"/></g>
    <g id="rig-leg-right" data-pivot="15.05 17"><rect x="13.3" y="17" width="3.5" height="4" rx="1.2" fill="url(#dgC-limb)"/></g>
    <g id="rig-body">
      <path d="M9 4 L15 4 A4 4 0 0 1 19 8 L19 12 A4 4 0 0 1 15 16 L9 16 A4 4 0 0 1 5 12 L5 8 A4 4 0 0 1 9 4 Z" fill="#2E1828"/>
      <path d="M9 4 L15 4 A4 4 0 0 1 19 8 L19 12 A4 4 0 0 1 15 16 L9 16 A4 4 0 0 1 5 12 L5 8 A4 4 0 0 1 9 4 Z" fill="url(#dgC-lo)"/>
      <path d="M9 4 L15 4 A4 4 0 0 1 19 8 L19 12 A4 4 0 0 1 15 16 L9 16 A4 4 0 0 1 5 12 L5 8 A4 4 0 0 1 9 4 Z" fill="url(#dgC-hi)"/>
      <ellipse cx="9.6" cy="6.4" rx="3.4" ry="1.9" fill="url(#dgC-spec)" transform="rotate(-14 9.6 6.4)"/>
      <g id="rig-face-idle">
        <path d="M8 10.2 Q9.3 9.1 10.6 10.2" fill="none" stroke="#FFC627" stroke-width="0.85" stroke-linecap="round"/><path d="M13.4 9.9 Q14.7 8.8 16 9.9" fill="none" stroke="#FFC627" stroke-width="0.85" stroke-linecap="round"/><ellipse cx="12" cy="13.35" rx="0.5" ry="0.42" fill="#1A0C18" stroke="#FFC627" stroke-width="0.3"/>
      </g>
      <g id="rig-face-welcome" style="display:none">
        <ellipse cx="9.3" cy="9.55" rx="1.6" ry="2.2" fill="#1A0C18" stroke="#FFC627" stroke-width="0.3"/><g class="pupil"><circle cx="10" cy="10.25" r="0.3" fill="#FFF4D0"/><circle cx="9.35" cy="10.85" r="0.2" fill="#FF8FA8" fill-opacity="0.8"/><circle cx="10.3" cy="10.85" r="0.14" fill="#FFC627" fill-opacity="0.65"/></g><ellipse cx="14.7" cy="9.25" rx="1.6" ry="2.2" fill="#1A0C18" stroke="#FFC627" stroke-width="0.3"/><g class="pupil"><circle cx="15.4" cy="9.95" r="0.3" fill="#FFF4D0"/><circle cx="14.75" cy="10.55" r="0.2" fill="#FF8FA8" fill-opacity="0.8"/><circle cx="15.7" cy="10.55" r="0.14" fill="#FFC627" fill-opacity="0.65"/></g><g transform="rotate(-2 12 13.3)"><path d="M10.8 13.3 Q10.8 13 12 13 Q13.2 13 13.2 13.3 A1.1 1 0 0 1 10.8 13.3 Z" fill="#1A0C18" stroke="#FFC627" stroke-width="0.3"/></g>
      </g>
      <g id="rig-face-curious" style="display:none">
        <ellipse cx="9.3" cy="9.55" rx="1.6" ry="2.2" fill="#1A0C18" stroke="#FFC627" stroke-width="0.3"/><g class="pupil"><circle cx="10" cy="10.25" r="0.3" fill="#FFF4D0"/><circle cx="9.35" cy="10.85" r="0.2" fill="#FF8FA8" fill-opacity="0.8"/><circle cx="10.3" cy="10.85" r="0.14" fill="#FFC627" fill-opacity="0.65"/></g><ellipse cx="14.7" cy="9.25" rx="1.6" ry="2.2" fill="#1A0C18" stroke="#FFC627" stroke-width="0.3"/><g class="pupil"><circle cx="15.4" cy="9.95" r="0.3" fill="#FFF4D0"/><circle cx="14.75" cy="10.55" r="0.2" fill="#FF8FA8" fill-opacity="0.8"/><circle cx="15.7" cy="10.55" r="0.14" fill="#FFC627" fill-opacity="0.65"/></g><path d="M8 7.1 L10.6 6.9" fill="none" stroke="#FFC627" stroke-width="0.5" stroke-linecap="round"/><path d="M13.35 6.6 Q14.7 5.7 16.05 6" fill="none" stroke="#FFC627" stroke-width="0.5" stroke-linecap="round"/><ellipse cx="12.05" cy="13.35" rx="0.45" ry="0.5" fill="#1A0C18" stroke="#FFC627" stroke-width="0.3"/>
      </g>
      <g id="rig-face-shocked" style="display:none">
        <ellipse cx="9.3" cy="9.7" rx="1.79" ry="2.46" fill="#1A0C18" stroke="#FFC627" stroke-width="0.3"/><g class="pupil"><circle cx="10.08" cy="10.48" r="0.34" fill="#FFF4D0"/><circle cx="9.36" cy="11.16" r="0.22" fill="#FF8FA8" fill-opacity="0.8"/><circle cx="10.42" cy="11.16" r="0.16" fill="#FFC627" fill-opacity="0.65"/></g><ellipse cx="14.7" cy="9.4" rx="1.79" ry="2.46" fill="#1A0C18" stroke="#FFC627" stroke-width="0.3"/><g class="pupil"><circle cx="15.48" cy="10.18" r="0.34" fill="#FFF4D0"/><circle cx="14.76" cy="10.86" r="0.22" fill="#FF8FA8" fill-opacity="0.8"/><circle cx="15.82" cy="10.86" r="0.16" fill="#FFC627" fill-opacity="0.65"/></g><path d="M7.95 6.5 Q9.3 5.9 10.65 6.5" fill="none" stroke="#FFC627" stroke-width="0.5" stroke-linecap="round"/><path d="M13.35 6.2 Q14.7 5.6 16.05 6.2" fill="none" stroke="#FFC627" stroke-width="0.5" stroke-linecap="round"/><ellipse cx="12" cy="13.6" rx="0.7" ry="0.85" fill="#1A0C18" stroke="#FFC627" stroke-width="0.3"/>
      </g>
      <g id="rig-face-dizzy" style="display:none">
        <path d="M9.3 9.8 a0.3 0.3 0 0 1 0.3 0.3 a0.6 0.6 0 0 1 -0.6 0.6 a0.9 0.9 0 0 1 -0.9 -0.9 a1.2 1.2 0 0 1 1.2 -1.2 a1.3 1.3 0 0 1 1.3 1.3" fill="none" stroke="#FFC627" stroke-width="0.6" stroke-linecap="round"/><path d="M14.7 9.6 a0.3 0.3 0 0 1 0.3 0.3 a0.6 0.6 0 0 1 -0.6 0.6 a0.9 0.9 0 0 1 -0.9 -0.9 a1.2 1.2 0 0 1 1.2 -1.2 a1.3 1.3 0 0 1 1.3 1.3" fill="none" stroke="#FFC627" stroke-width="0.6" stroke-linecap="round"/><path d="M10.4 13.6 L11.2 13 L12 13.6 L12.8 13 L13.6 13.6" fill="none" stroke="#FFC627" stroke-width="0.8" stroke-linecap="round" stroke-linejoin="round"/>
      </g>
      <g id="rig-face-blink" style="display:none">
        <path d="M8 10 Q9.3 10.5 10.6 10" fill="none" stroke="#FFC627" stroke-width="0.85" stroke-linecap="round"/><path d="M13.4 9.7 Q14.7 10.2 16 9.7" fill="none" stroke="#FFC627" stroke-width="0.85" stroke-linecap="round"/><g transform="rotate(-2 12 13.3)"><path d="M10.8 13.3 Q10.8 13 12 13 Q13.2 13 13.2 13.3 A1.1 1 0 0 1 10.8 13.3 Z" fill="#1A0C18" stroke="#FFC627" stroke-width="0.3"/></g>
      </g>
      <g id="rig-face-happy" style="display:none">
        <path d="M8 10.4 Q9.3 8.6 10.6 10.4" fill="none" stroke="#FFC627" stroke-width="0.9" stroke-linecap="round"/><path d="M13.4 10.1 Q14.7 8.3 16 10.1" fill="none" stroke="#FFC627" stroke-width="0.9" stroke-linecap="round"/><path d="M10.3 13 Q10.3 12.7 12 12.7 Q13.7 12.7 13.7 13 A1.7 1.5 0 0 1 10.3 13 Z" fill="#1A0C18" stroke="#FFC627" stroke-width="0.3"/>
      </g>
      <g id="rig-face-shutdown" style="display:none">
        <path d="M8 10 L10.6 10" fill="none" stroke="#FFC627" stroke-width="0.8" stroke-linecap="round"/><path d="M13.4 9.8 L16 9.8" fill="none" stroke="#FFC627" stroke-width="0.8" stroke-linecap="round"/><path d="M11.3 13.3 L12.7 13.3" fill="none" stroke="#FFC627" stroke-width="0.5" stroke-linecap="round"/>
      </g>
      <g id="slot-eyewear"/>
    </g>
    <g id="slot-hat"><g fill="#8C3050" stroke="#FFC627" stroke-width="0.26"><path d="M7.6 4 L6.4 0.8 L9.8 3.2 Z"/><path d="M16.4 4 L17.6 0.8 L14.2 3.2 Z"/></g></g>
    <g id="rig-hand-peek-right" style="display:none"><rect x="20.7" y="8.3" width="2.6" height="3.4" rx="1.17" fill="url(#dgC-limb)"/></g>
    <g id="rig-hand-peek-left" style="display:none"><rect x="0.7" y="8.3" width="2.6" height="3.4" rx="1.17" fill="url(#dgC-limb)"/></g>
  </g>
</svg>
