<svg xmlns="http://www.w3.org/2000/svg" viewBox="0 0 32 32" width="32" height="32" shape-rendering="crispEdges"><rect x="9" y="4" width="14" height="1" fill="#5A2A00"/><rect x="7" y="5" width="2" height="1" fill="#5A2A00"/><rect x="9" y="5" width="14" height="1" fill="#FFDA7A"/><rect x="23" y="5" width="2" height="1" fill="#5A2A00"/><rect x="6" y="6" width="1" height="1" fill="#5A2A00"/><rect x="7" y="6" width="2" height="1" fill="#FFDA7A"/><rect x="9" y="6" width="14" height="1" fill="#FFB52E"/><rect x="23" y="6" width="2" height="1" fill="#FFDA7A"/><rect x="25" y="6" width="1" height="1" fill="#5A2A00"/><rect x="6" y="7" width="1" height="1" fill="#5A2A00"/><rect x="7" y="7" width="17" height="1" fill="#FFB52E"/><rect x="24" y="7" width="1" height="1" fill="#E8801C"/><rect x="25" y="7" width="1" height="1" fill="#5A2A00"/><rect x="5" y="8" width="1" height="1" fill="#5A2A00"/><rect x="6" y="8" width="1" height="1" fill="#FFDA7A"/><rect x="7" y="8" width="1" height="1" fill="#FFB52E"/><rect x="8" y="8" width="2" height="1" fill="#FFF4CC"/><rect x="10" y="8" width="15" height="1" fill="#FFB52E"/><rect x="25" y="8" width="1" height="1" fill="#FFDA7A"/><rect x="26" y="8" width="1" height="1" fill="#5A2A00"/><rect x="5" y="9" width="1" height="1" fill="#5A2A00"/><rect x="6" y="9" width="2" height="1" fill="#FFB52E"/><rect x="8" y="9" width="1" height="1" fill="#FFF4CC"/><rect x="9" y="9" width="16" height="1" fill="#FFB52E"/><rect x="25" y="9" width="1" height="1" fill="#E8801C"/><rect x="26" y="9" width="1" height="1" fill="#5A2A00"/><rect x="5" y="10" width="1" height="1" fill="#5A2A00"/><rect x="6" y="10" width="19" height="1" fill="#FFB52E"/><rect x="25" y="10" width="1" height="1" fill="#E8801C"/><rect x="26" y="10" width="1" height="1" fill="#5A2A00"/><rect x="2" y="11" width="2" height="1" fill="#5A2A00"/><rect x="5" y="11" width="1" height="1" fill="#5A2A00"/><rect x="6" y="11" width="3" height="1" fill="#FFB52E"/><rect x="9" y="11" width="2" height="1" fill="#2A1A10"/><rect x="11" y="11" width="1" height="1" fill="#FFFFFF"/><rect x="12" y="11" width="7" height="1" fill="#2A1A10"/><rect x="19" y="11" width="1" height="1" fill="#FFFFFF"/><rect x="20" y="11" width="3" height="1" fill="#2A1A10"/><rect x="23" y="11" width="2" height="1" fill="#FFB52E"/><rect x="25" y="11" width="1" height="1" fill="#E8801C"/><rect x="26" y="11" width="1" height="1" fill="#5A2A00"/><rect x="28" y="11" width="2" height="1" fill="#5A2A00"/><rect x="1" y="12" width="1" height="1" fill="#5A2A00"/><rect x="2" y="12" width="2" height="1" fill="#FFDA7A"/><rect x="4" y="12" width="2" height="1" fill="#5A2A00"/><rect x="6" y="12" width="3" height="1" fill="#FFB52E"/><rect x="9" y="12" width="1" height="1" fill="#2A1A10"/><rect x="10" y="12" width="1" height="1" fill="#FFFFFF"/><rect x="11" y="12" width="4" height="1" fill="#2A1A10"/><rect x="15" y="12" width="2" height="1" fill="#FFB52E"/><rect x="17" y="12" width="1" height="1" fill="#2A1A10"/><rect x="18" y="12" width="1" height="1" fill="#FFFFFF"/><rect x="19" y="12" width="4" height="1" fill="#2A1A10"/><rect x="23" y="12" width="2" height="1" fill="#FFB52E"/><rect x="25" y="12" width="1" height="1" fill="#E8801C"/><rect x="26" y="12" width="2" height="1" fill="#5A2A00"/><rect x="28" y="12" width="2" height="1" fill="#FFDA7A"/><rect x="30" y="12" width="1" height="1" fill="#5A2A00"/><rect x="0" y="13" width="1" height="1" fill="#5A2A00"/><rect x="1" y="13" width="1" height="1" fill="#FFDA7A"/><rect x="2" y="13" width="2" height="1" fill="#FFB52E"/><rect x="4" y="13" width="1" height="1" fill="#FFDA7A"/><rect x="5" y="13" width="1" height="1" fill="#5A2A00"/><rect x="6" y="13" width="3" height="1" fill="#FFB52E"/><rect x="9" y="13" width="6" height="1" fill="#2A1A10"/><rect x="15" y="13" width="2" height="1" fill="#FFB52E"/><rect x="17" y="13" width="6" height="1" fill="#2A1A10"/><rect x="23" y="13" width="2" height="1" fill="#FFB52E"/><rect x="25" y="13" width="1" height="1" fill="#E8801C"/><rect x="26" y="13" width="1" height="1" fill="#5A2A00"/><rect x="27" y="13" width="1" height="1" fill="#FFDA7A"/><rect x="28" y="13" width="2" height="1" fill="#FFB52E"/><rect x="30" y="13" width="1" height="1" fill="#FFDA7A"/><rect x="31" y="13" width="1" height="1" fill="#5A2A00"/><rect x="0" y="14" width="1" height="1" fill="#5A2A00"/><rect x="1" y="14" width="3" height="1" fill="#FFB52E"/><rect x="4" y="14" width="1" height="1" fill="#E8801C"/><rect x="5" y="14" width="1" height="1" fill="#5A2A00"/><rect x="6" y="14" width="3" height="1" fill="#FFB52E"/><rect x="9" y="14" width="6" height="1" fill="#2A1A10"/><rect x="15" y="14" width="2" height="1" fill="#FFB52E"/><rect x="17" y="14" width="6" height="1" fill="#2A1A10"/><rect x="23" y="14" width="2" height="1" fill="#FFB52E"/><rect x="25" y="14" width="1" height="1" fill="#E8801C"/><rect x="26" y="14" width="1" height="1" fill="#5A2A00"/><rect x="27" y="14" width="3" height="1" fill="#FFB52E"/><rect x="30" y="14" width="1" height="1" fill="#E8801C"/><rect x="31" y="14" width="1" height="1" fill="#5A2A00"/><rect x="0" y="15" width="1" height="1" fill="#5A2A00"/><rect x="1" y="15" width="1" height="1" fill="#E8801C"/><rect x="2" y="15" width="2" height="1" fill="#FFB52E"/><rect x="4" y="15" width="1" height="1" fill="#E8801C"/><rect x="5" y="15" width="1" height="1" fill="#5A2A00"/><rect x="6" y="15" width="8" height="1" fill="#FFB52E"/><rect x="14" y="15" width="1" height="1" fill="#5A2A00"/><rect x="15" y="15" width="2" height="1" fill="#FFB52E"/><rect x="17" y="15" width="1" height="1" fill="#5A2A00"/><rect x="18" y="15" width="7" height="1" fill="#FFB52E"/><rect x="25" y="15" width="1" height="1" fill="#E8801C"/><rect x="26" y="15" width="1" height="1" fill="#5A2A00"/><rect x="27" y="15" width="1" height="1" fill="#E8801C"/><rect x="28" y="15" width="2" height="1" fill="#FFB52E"/><rect x="30" y="15" width="1" height="1" fill="#E8801C"/><rect x="31" y="15" width="1" height="1" fill="#5A2A00"/><rect x="0" y="16" width="1" height="1" fill="#5A2A00"/><rect x="1" y="16" width="4" height="1" fill="#E8801C"/><rect x="5" y="16" width="1" height="1" fill="#5A2A00"/><rect x="6" y="16" width="1" height="1" fill="#E8801C"/><rect x="7" y="16" width="1" height="1" fill="#FFB52E"/><rect x="8" y="16" width="2" height="1" fill="#FF6A3D"/><rect x="10" y="16" width="5" height="1" fill="#FFB52E"/><rect x="15" y="16" width="2" height="1" fill="#5A2A00"/><rect x="17" y="16" width="5" height="1" fill="#FFB52E"/><rect x="22" y="16" width="2" height="1" fill="#FF6A3D"/><rect x="24" y="16" width="1" height="1" fill="#FFB52E"/><rect x="25" y="16" width="1" height="1" fill="#E8801C"/><rect x="26" y="16" width="1" height="1" fill="#5A2A00"/><rect x="27" y="16" width="4" height="1" fill="#E8801C"/><rect x="31" y="16" width="1" height="1" fill="#5A2A00"/><rect x="1" y="17" width="1" height="1" fill="#5A2A00"/><rect x="2" y="17" width="2" height="1" fill="#E8801C"/><rect x="4" y="17" width="2" height="1" fill="#5A2A00"/><rect x="6" y="17" width="1" height="1" fill="#E8801C"/><rect x="7" y="17" width="18" height="1" fill="#FFB52E"/><rect x="25" y="17" width="1" height="1" fill="#E8801C"/><rect x="26" y="17" width="2" height="1" fill="#5A2A00"/><rect x="28" y="17" width="2" height="1" fill="#E8801C"/><rect x="30" y="17" width="1" height="1" fill="#5A2A00"/><rect x="2" y="18" width="2" height="1" fill="#5A2A00"/><rect x="6" y="18" width="1" height="1" fill="#5A2A00"/><rect x="7" y="18" width="2" height="1" fill="#E8801C"/><rect x="9" y="18" width="14" height="1" fill="#FFB52E"/><rect x="23" y="18" width="2" height="1" fill="#E8801C"/><rect x="25" y="18" width="1" height="1" fill="#5A2A00"/><rect x="28" y="18" width="2" height="1" fill="#5A2A00"/><rect x="6" y="19" width="1" height="1" fill="#5A2A00"/><rect x="7" y="19" width="18" height="1" fill="#E8801C"/><rect x="25" y="19" width="1" height="1" fill="#5A2A00"/><rect x="7" y="20" width="2" height="1" fill="#5A2A00"/><rect x="9" y="20" width="14" height="1" fill="#E8801C"/><rect x="23" y="20" width="2" height="1" fill="#5A2A00"/><rect x="9" y="21" width="14" height="1" fill="#5A2A00"/><rect x="8" y="22" width="1" height="1" fill="#5A2A00"/><rect x="9" y="22" width="5" height="1" fill="#FFDA7A"/><rect x="14" y="22" width="1" height="1" fill="#5A2A00"/><rect x="17" y="22" width="1" height="1" fill="#5A2A00"/><rect x="18" y="22" width="5" height="1" fill="#FFDA7A"/><rect x="23" y="22" width="1" height="1" fill="#5A2A00"/><rect x="8" y="23" width="1" height="1" fill="#5A2A00"/><rect x="9" y="23" width="4" height="1" fill="#FFB52E"/><rect x="13" y="23" width="1" height="1" fill="#E8801C"/><rect x="14" y="23" width="1" height="1" fill="#5A2A00"/><rect x="17" y="23" width="1" height="1" fill="#5A2A00"/><rect x="18" y="23" width="4" height="1" fill="#FFB52E"/><rect x="22" y="23" width="1" height="1" fill="#E8801C"/><rect x="23" y="23" width="1" height="1" fill="#5A2A00"/><rect x="8" y="24" width="1" height="1" fill="#5A2A00"/><rect x="9" y="24" width="1" height="1" fill="#E8801C"/><rect x="10" y="24" width="3" height="1" fill="#FFB52E"/><rect x="13" y="24" width="1" height="1" fill="#E8801C"/><rect x="14" y="24" width="1" height="1" fill="#5A2A00"/><rect x="17" y="24" width="1" height="1" fill="#5A2A00"/><rect x="18" y="24" width="1" height="1" fill="#E8801C"/><rect x="19" y="24" width="3" height="1" fill="#FFB52E"/><rect x="22" y="24" width="1" height="1" fill="#E8801C"/><rect x="23" y="24" width="1" height="1" fill="#5A2A00"/><rect x="8" y="25" width="1" height="1" fill="#5A2A00"/><rect x="9" y="25" width="5" height="1" fill="#E8801C"/><rect x="14" y="25" width="1" height="1" fill="#5A2A00"/><rect x="17" y="25" width="1" height="1" fill="#5A2A00"/><rect x="18" y="25" width="5" height="1" fill="#E8801C"/><rect x="23" y="25" width="1" height="1" fill="#5A2A00"/><rect x="9" y="26" width="1" height="1" fill="#5A2A00"/><rect x="10" y="26" width="3" height="1" fill="#E8801C"/><rect x="13" y="26" width="1" height="1" fill="#5A2A00"/><rect x="18" y="26" width="1" height="1" fill="#5A2A00"/><rect x="19" y="26" width="3" height="1" fill="#E8801C"/><rect x="22" y="26" width="1" height="1" fill="#5A2A00"/><rect x="10" y="27" width="3" height="1" fill="#5A2A00"/><rect x="19" y="27" width="3" height="1" fill="#5A2A00"/></svg>