<svg viewBox="0 0 24 24" fill="currentColor" xmlns="http://www.w3.org/2000/svg">
  <!-- Sun on the left -->
  <circle cx="3" cy="5.5" r="4.5" fill="#ffc030" opacity="0.08"/>
  <circle cx="3" cy="5.5" r="2.8" fill="#ffc030" opacity="0.13"/>
  <circle cx="3" cy="5.5" r="1.4" fill="#ffc030"/>
  <line x1="4.6" y1="5.5" x2="6.2" y2="5.5"  stroke="#ffc030" stroke-width="0.55" stroke-linecap="round"/>
  <line x1="4.1" y1="4.1" x2="5.2" y2="3.2"  stroke="#ffc030" stroke-width="0.50" stroke-linecap="round"/>
  <line x1="4.1" y1="6.9" x2="5.2" y2="7.8"  stroke="#ffc030" stroke-width="0.50" stroke-linecap="round"/>
  <line x1="3"   y1="3.8" x2="3"   y2="2.4"  stroke="#ffc030" stroke-width="0.50" stroke-linecap="round"/>
  <line x1="3"   y1="7.2" x2="3"   y2="8.6"  stroke="#ffc030" stroke-width="0.45" stroke-linecap="round"/>
  <line x1="1.4" y1="5.5" x2="0.1" y2="5.5"  stroke="#ffc030" stroke-width="0.45" stroke-linecap="round"/>
  <line x1="1.4" y1="4.1" x2="0.4" y2="3.2"  stroke="#ffc030" stroke-width="0.40" stroke-linecap="round"/>
  <line x1="1.4" y1="6.9" x2="0.4" y2="7.8"  stroke="#ffc030" stroke-width="0.40" stroke-linecap="round"/>
  <!-- Warm light wash -->
  <rect x="4.5" y="4.0" width="5.5" height="9" rx="2" fill="#ffc030" opacity="0.05"/>
  <!-- Body, >< eyes PAINTED on top (2026-07-16: cutout eyes were transparent holes to the
       desktop in the buddy window; painted #2a1004 matches assets/mascot-rig.svg) -->
  <path fill="#f0a828" d="M9 4 L15 4 A4 4 0 0 1 19 8 L19 12 A4 4 0 0 1 15 16 L9 16 A4 4 0 0 1 5 12 L5 8 A4 4 0 0 1 9 4 Z"/>
  <path fill="#2a1004" d="M8.5 8 L10.5 10 L8.5 12 L9.5 12 L11.5 10 L9.5 8 Z"/>
  <path fill="#2a1004" d="M15.5 8 L13.5 10 L15.5 12 L14.5 12 L12.5 10 L14.5 8 Z"/>
  <!-- Arms -->
  <path fill="#f0a828" d="M1.8 9 L3.2 9 A0.8 0.8 0 0 1 4 9.8 L4 12.2 A0.8 0.8 0 0 1 3.2 13 L1.8 13 A0.8 0.8 0 0 1 1 12.2 L1 9.8 A0.8 0.8 0 0 1 1.8 9 Z"/>
  <path fill="#f0a828" d="M20.8 9 L22.2 9 A0.8 0.8 0 0 1 23 9.8 L23 12.2 A0.8 0.8 0 0 1 22.2 13 L20.8 13 A0.8 0.8 0 0 1 20 12.2 L20 9.8 A0.8 0.8 0 0 1 20.8 9 Z"/>
  <!-- Legs -->
  <rect fill="#f0a828" x="7.2" y="17" width="3.5" height="4" rx="1.2"/>
  <rect fill="#f0a828" x="13.3" y="17" width="3.5" height="4" rx="1.2"/>
  <!-- Dust motes -->
  <circle cx="6.5" cy="6.0" r="0.40" fill="#ffc030" opacity="0.70"/>
  <circle cx="8.5" cy="4.5" r="0.30" fill="#ffe090" opacity="0.55"/>
  <circle cx="7.0" cy="8.5" r="0.26" fill="#ffc030" opacity="0.48"/>
  <circle cx="20.5" cy="11.5" r="0.28" fill="#ffe090" opacity="0.35"/>
</svg>
